<svg xmlns="http://www.w3.org/2000/svg" viewBox="0 0 836.99 900.49"><defs><style>.cls-1{fill:#fefefe;}</style></defs><title>Recurso 1</title><g id="Capa_2" data-name="Capa 2"><g id="Capa_2-2" data-name="Capa 2"><path class="cls-1" d="M344.12,248.71c-3.07,0-6.59.44-7.81,1s-2.22,4.6-2.22,6a14.11,14.11,0,0,0,1,4.78c.55,1.22,6,2.22,9.07,2.22s5.83,1.51,6.09,3.36-1.08,7.45-4,8.51-6.07,2.69-7,3.62-.52,5.08,0,6.4a13.84,13.84,0,0,0,2.56,4.15c.93,1,6.38,0,9.3-1s6-.58,6.89,1.06,1.61,7.33-.69,9.26a25.47,25.47,0,0,0-5.23,5.69c-.59,1.2,1.25,4.95,2.16,6a14,14,0,0,0,3.83,3c1.21.59,5.95-2.09,8.24-4s5.32-2.47,6.71-1.21,4.08,6.41,2.58,9-2.84,5.81-3,7.14,2.87,4.22,4.09,4.92a13.7,13.7,0,0,0,4.64,1.53c1.33.14,4.87-4,6.37-6.59s4.1-4.17,5.79-3.48,5.85,4.66,5.31,7.71-.71,6.6-.38,7.89,4.14,3,5.53,3.23a13.75,13.75,0,0,0,4.88-.15c1.3-.32,3.22-5.49,3.76-8.52s2.57-5.42,4.52-5.29h3.41c1.75-.1,3.61,2.29,4.14,5.31s1.58,6.4,2.33,7.51,4.92,1.39,6.3,1.14a13.9,13.9,0,0,0,4.54-1.81c1.11-.75,1.15-6.23.63-9.23s.49-5.92,2.28-6.49,7.57-.26,9.09,2.37a26,26,0,0,0,4.73,6.21c1.08.78,5.09-.38,6.31-1.08a14.11,14.11,0,0,0,3.65-3.26c.78-1.08-1-6.22-2.55-8.84s-1.52-5.69,0-6.83,7-2.87,9.34-.94a25.65,25.65,0,0,0,6.52,4.18c1.29.36,4.66-2.1,5.56-3.18a13.71,13.71,0,0,0,2.31-4.3c.37-1.29-3.07-5.48-5.35-7.39S477,293.55,478,292s5.63-5.14,8.41-4.13a24.85,24.85,0,0,0,7.48,1.66c1.33-.09,3.65-3.56,4.14-4.88a14.2,14.2,0,0,0,.7-4.84c-.1-1.33-4.74-4.08-7.5-5.09s-4.7-3.33-4.29-5.17,3.49-6.8,6.42-6.8a24.55,24.55,0,0,0,7.54-1c1.22-.54,2.22-4.59,2.22-6a14.11,14.11,0,0,0-1-4.78c-.55-1.23-5.83-2.22-8.75-2.22s-5.5-1.55-5.76-3.44.94-7.56,3.67-8.56a24.5,24.5,0,0,0,6.71-3.49c1-.94.51-5.08,0-6.41a14,14,0,0,0-2.57-4.15c-.93-1-6.22-.1-8.94.89s-5.68.42-6.57-1.26-1.67-7.49.63-9.42,4.67-4.5,5.25-5.71-1.25-4.94-2.16-6a14.19,14.19,0,0,0-3.83-3c-1.21-.58-5.95,2.1-8.26,4s-5.33,2.49-6.72,1.24-4.07-6.42-2.56-9,2.85-5.82,3-7.15-2.87-4.22-4.09-4.93a14.16,14.16,0,0,0-4.64-1.53c-1.33-.13-4.87,4-6.37,6.61s-4.19,4.15-6,3.42-6.22-4.61-5.71-7.48a24.61,24.61,0,0,0,.32-7.57c-.32-1.3-4.14-3-5.53-3.23a14,14,0,0,0-4.88.15c-1.29.32-3.2,5.37-3.71,8.26s-2.37,5.16-4.15,5.06h-3.47c-2,.12-4-2.14-4.54-5a24.92,24.92,0,0,0-2.29-7.29c-.75-1.1-4.91-1.38-6.3-1.14a14.12,14.12,0,0,0-4.54,1.81c-1.11.75-1.16,6.16-.65,9.07s-.54,5.79-2.33,6.38-7.58.39-9.07-2.19-3.59-5.33-4.68-6.11-5.09.37-6.31,1.08a13.87,13.87,0,0,0-3.64,3.25c-.79,1.08,1,6.22,2.53,8.81s1.52,5.68,0,6.84-7,2.92-9.31,1-5.25-3.83-6.54-4.19-4.65,2.09-5.56,3.17a13.82,13.82,0,0,0-2.31,4.3c-.37,1.29,3.11,5.51,5.44,7.46s3.41,4.84,2.43,6.43-5.61,5.1-8.47,4.06-6.29-1.82-7.62-1.72-3.66,3.56-4.14,4.89a13.9,13.9,0,0,0-.7,4.83c.09,1.33,4.83,4.12,7.71,5.17s4.92,3.38,4.54,5.19S347.2,248.71,344.12,248.71Zm74.77-42.25a49,49,0,1,1-49,49A49,49,0,0,1,418.89,206.46Z"/><path class="cls-1" d="M418.89,291.46a36,36,0,1,0-36-36A36,36,0,0,0,418.89,291.46Zm0-52.5a16.5,16.5,0,1,1-16.5,16.5A16.5,16.5,0,0,1,418.89,239Z"/><path class="cls-1" d="M418.59,94C244.34,94,103.08,235.33,103.08,409.73A315,315,0,0,0,204.66,641.81l.2-.27c14,15.61,28.79,30,43.74,44.05,24.35,22.88,49.28,44.88,65.34,79.94,2,4.32,5,6.18,7.74,1.19,10.31-18.92,19.73-38.44,20.77-62.87.76-7.72-3.47-10.63-7.45-13.64-28-21.19-55.15-44.08-80.19-71-6.17-6.64-12.24-13.51-18-20.78l.16-.21a260.69,260.69,0,0,1-80.25-188.45c0-144.49,117.26-261.63,261.9-261.63s261.9,117.14,261.9,261.63c0,124.08-86.47,228-202.5,254.87v0A85.14,85.14,0,0,0,425.64,700c.15-3.77.3-7.53.1-11.29,1-1.56,1.77-3.39,3.08-4.63,18.85-18,35.33-38.06,52.43-57.6C497,608.56,512.92,590.86,528.7,573c1.92-2.17,5.12-4.68,4.34-7.37-1.84-6.43,2.19-5.27,5.55-5.08,5,.3,10.14,2.1,14.06-3,.57-.74,2.67-.91,3.77-.52,8.79,3.13,16.92.77,25.75-1,20.83-4.2,34.78-16.42,45.47-33.6,15.21-24.44,17.71-51.72,16.9-79.5-.64-21.93-5.35-43.44-8.37-65.12A228.36,228.36,0,0,1,635,322c1.32-12.57,7.41-24.21,7-37.09-1.54-.32-2.51.31-3.6,1.28q-15.95,14.1-32,28.05c-21.07,18.23-43.9,34.31-65.3,52-28.27,23.34-48,52.95-48.83,92-.44,20.65.57,40.78,10.3,59.47,4.42,8.51,5.62,8.55,13.19,3,18-13.17,29.88-32,43.88-48.75,11.57-13.88,20.15-29.81,28.72-45.66a20,20,0,0,1,4.43-11.07c1.23,5.44-.68,9.23-1.69,13.12-.74,1.38-2.12,2.75-2.14,4.13-.13,10.81-4.66,20.6-7.72,30.56-11.86,38.57-32.76,72.41-58.21,103.29-16.73,20.31-35.32,39.08-52.68,58.89-14.79,16.89-29.76,33.6-45.4,49.72a1.18,1.18,0,0,0-.64-1c2.62-46.07,1.5-92.2,1.74-138.29.31-60.32,0-120.64.22-180.95H411.76q-.19,129.51,1.55,259c-.22,2.67-.61,5.34-.63,8q-.19,24.36-.35,48.71c-14.35-14.81-28.19-30.08-41.87-45.51-17.56-19.82-36.38-38.58-53.32-58.89-25.76-30.89-46.91-64.73-58.91-103.3-3.1-10-7.68-19.74-7.81-30.55,0-1.39-1.42-2.76-2.17-4.13-1-3.89-2.95-7.68-1.71-13.13A20,20,0,0,1,251,426c8.67,15.85,17.35,31.77,29.07,45.65,14.17,16.79,26.14,35.59,44.4,48.76,7.67,5.53,8.88,5.49,13.36-3,9.84-18.69,10.86-38.82,10.42-59.47-.85-39.07-20.81-68.68-49.42-92-21.66-17.67-44.77-33.75-66.09-52q-16.29-13.92-32.4-28c-1.11-1-2.09-1.61-3.64-1.29-.43,12.89,5.73,24.53,7.07,37.1a225.81,225.81,0,0,1-1.2,55.77c-3.06,21.68-7.82,43.19-8.47,65.13-.82,27.78,1.72,55.06,17.11,79.5,10.82,17.18,24.93,29.4,46,33.6,8.93,1.78,17.16,4.13,26.06,1,1.11-.4,3.24-.22,3.82.51,4,5.09,9.19,3.29,14.22,3,3.41-.2,7.49-1.35,5.62,5.07-.78,2.69,2.46,5.21,4.4,7.38,16,17.87,32.14,35.57,48,53.5,17.24,19.47,33.86,39.48,52.84,57.38-.31,46.43-.61,92.87-1.21,139.3a580.33,580.33,0,0,0,3.63,72.93c.18,1.54-.05,3.3,2.93,4.71,2.37-7,9.21-9.23,14.78-13s7.54-9.49,7.83-15.89c.94-20.61,1.83-41.21,5.06-61.64,2.83-17.89,7.92-34.92,17.44-50.49,12.75-20.82,32-34.3,52.28-46.59,3.12-1.89,6.26-3.73,9.42-5.55C646.6,663.76,734.1,547,734.1,409.73,734.1,235.33,592.84,94,418.59,94Z"/><path class="cls-1" d="M824.13,441.24c-5.25-.66-10.51-1.41-15.78-1.55-4.81-.12-6.53-1.85-6.33-6.81.36-9.29,1.32-18.68-.62-27.89-1-4.53.42-7.26,4.4-9.08,7.61-3.47,13.16-9.7,19.67-14.66,7.18-5.47,5-12.56,3.31-19.32-1.65-6.55-7-8.82-13.2-9.28-1.73-.13-3.83.89-5.19.21-4.52-2.23-12.64,1.63-13.78-4.39l-.35-1.88a2.93,2.93,0,0,1,2.9-3.73c2,0,3.43-.81,3.15-1.81l-.06-1.12c-.5-8.86-1.28-17.73-3.43-26.33-1.88-7.49.72-12.29,7.63-14.8a40.34,40.34,0,0,0,6.11-2.75c4.25-2.41,10.48-3.8,9.65-10.31s-2.71-13-10.1-15.54a57.74,57.74,0,0,0-12.55-2.6c-6.5-.76-13-1.84-19.46-2.68a11.41,11.41,0,0,1-8.26-4.69c-12.48-17.16-11.72-23.2,4.68-36.39l1.76-1.44c11-9,10.74-16.07-1.06-24.09a14.59,14.59,0,0,0-11.49-2.3c-6.16,1.28-12.37,2.42-18.45,4.06-7.48,2-14.39,2.47-19.76-4.45l-.77-1c-.85-1.11-1.54-2-1.53-2.07a2.41,2.41,0,0,0,0-.52,4.49,4.49,0,0,0-.83-1.29,163.29,163.29,0,0,1-5.52-16.6l5.44-7.64c2.76-3.88,4.75-8.31,7.35-12.33,2.93-4.52,4.75-9.12,1.23-14-4-5.51-8.16-11-16.07-10.89-9.67.13-15.69,7.92-23.72,11.55-4.86,2.19-6.66,2.49-12.74-4.64A68.57,68.57,0,0,0,657,118.46c-7.24-3.36-7.12-6.81-5.37-11.24,2.41-6.07,5.46-11.88,6.54-18.47,1.59-9.75-1.19-17.67-7.73-20.91-13.64-6.75-16.31-6.35-25.5,4a42.49,42.49,0,0,0-4.24,5.51c-3.25,5.16-7,6.43-12.47,3.45-10.39-5.68-21-11-31.5-16.4-13.4-6.85-13.56-4.26-9.5-19.52,1.85-7-.54-11.91-6-15.63-14.52-9.85-29.74-5-35.1,11.35-1.56,4.77-3.55,5.48-8.2,4.14a165.39,165.39,0,0,0-44.69-6.87c-5.19,0-6-2-5.93-6.85.2-12.51-3.08-24-15.92-29.11C441.05-2.14,427.05-.37,425.5,13c-.61,5.25-1.3,10.52-1.39,15.79-.08,4.81-1.78,6.55-6.74,6.4-9.3-.27-18.7-1.12-27.89.91-4.52,1-7.27-.36-9.12-4.31-3.55-7.58-9.84-13.07-14.86-19.52C360,5.18,352.89,7.41,346.14,9.18c-6.53,1.72-8.74,7.08-9.14,13.3-.11,1.73.92,3.82.27,5.19-2.2,4.54,1.76,12.62-4.26,13.82L326,42.89c-7.61,2-13.84,1.93-13.84-.1s-6.47-2.44-14.38-.89l-7.19,1.44c-6.75,1.36-11.21-1.71-13.73-9a10.66,10.66,0,0,0-1.64-3.11c-3.16-4-4.57-11.49-11.64-10.17-6.52,1.22-12.8,3.44-14.95,11a58.94,58.94,0,0,0-1.88,12.68c-.38,6.53-1.08,13-1.56,19.58a11.4,11.4,0,0,1-4.2,8.51c-16.43,13.45-22.5,13-36.61-2.59-.5-.56-1-1.11-1.53-1.67-9.64-10.5-16.66-9.8-24,2.44a14.59,14.59,0,0,0-1.64,11.6c1.63,6.08,3.13,12.21,5.11,18.18,2.45,7.36,3.29,14.23-3.31,20l-1,.83c-1.06.91-2,1.65-2,1.64a1.91,1.91,0,0,0-.51.07,4.49,4.49,0,0,0-1.24.91A166.65,166.65,0,0,1,158,130.63l-8-5c-4-2.53-8.57-4.26-12.73-6.63-4.68-2.67-9.38-4.22-14-.42-5.28,4.3-10.53,8.77-10,16.65.69,9.66,8.81,15.22,12.89,23,2.46,4.73,2.86,6.5-3.91,13A68.53,68.53,0,0,0,106,195.59c-2.94,7.42-6.39,7.5-10.91,6-6.2-2.06-12.18-4.76-18.81-5.46-9.83-1-17.58,2.19-20.44,8.91-6,14-5.4,16.64,5.48,25.22A41.54,41.54,0,0,0,67,234.18c5.33,2.95,6.82,6.65,4.15,12.25-5.07,10.7-9.79,21.56-14.57,32.39-6.07,13.77-3.47,13.78-18.94,10.6-7-1.44-11.86,1.22-15.26,6.91-9,15.05-3.3,30,13.34,34.39,4.85,1.28,5.67,3.23,4.6,7.95a165.37,165.37,0,0,0-4.3,45c.26,5.19-1.64,6.12-6.5,6.31-12.5.51-23.78,4.44-28.15,17.56C-2.08,418,.5,431.91,14,432.69c5.28.31,10.58.7,15.85.49,4.8-.2,6.63,1.4,6.77,6.36.26,9.3-.06,18.74,2.5,27.79l.86,3.06a25.59,25.59,0,0,1-2,4.09,2,2,0,0,0-.77.62,13.77,13.77,0,0,1-1.6,1.46l-.24.13-1.93,1A42.5,42.5,0,0,1,28.31,481l-.85.35c-4.42,1.79-8.47,4.46-12.82,6.46C9.74,490.09,5.74,493,6.1,499c.41,6.8,1,13.67,7.71,17.82l2.58,1.59c3,.6,7.34,1.54,9.69,2.09l2.38,0c1.73,0,3.76-1.14,5.16-.56l2.43,1c3.36-.43,7.85-.13,10,.68l1,3q3.39,10,7,19.86c.73,2.11,1.5,4.21,2.29,6.3q2,5.41,4,10.81c1.64,4.31-.23,6.59-3.33,8.84-5.29,3.83-11,7.1-15.43,12.08C35,589.85,33.09,598,36.88,604.27c7.89,13,10.35,14.11,23.67,10.29a42.77,42.77,0,0,0,6.53-2.37c5.51-2.61,9.38-1.66,12.38,3.78,5.71,10.37,11.78,20.54,17.78,30.74,7.63,13,9.15,10.87-2.46,21.57-5.29,4.88-5.93,10.33-3.3,16.42,7,16.1,22.41,20.18,35.71,9.25,3.87-3.18,5.93-2.71,9.14.91a165.09,165.09,0,0,0,34,29.77c4.37,2.82,4,4.91,1.33,9-6.88,10.44-10.28,21.9-2.18,33.1,6.48,8.95,19.25,15,27.74,4.49,3.33-4.1,6.75-8.18,9.65-12.58,2.64-4,5-4.57,9.12-1.78,7.71,5.21,15.18,11,24,14.2,4.35,1.57,5.94,4.19,5.39,8.53-1.07,8.3,1.29,16.3,2.07,24.44.85,9,8,10.9,14.65,13,6.44,2.05,11.18-1.29,14.85-6.32,1-1.4,1.28-3.72,2.56-4.52,4.29-2.65,5.29-11.59,11-9.38l13.81,5.35,28.47,7.12,3.74.59c2.06.32,7.54-.34,7.59-2.2s-2.55-8.56-4.91-10.82l-2.94-.93-13.27-4.19a504,504,0,0,1-50.35-19.48L261.2,766c-47.71-26-94.32-53.38-129.21-96.81-23.2-28.87-39.31-61.43-51.91-95.71a437,437,0,0,1-17.19-59.71c-4.22-21.59-7.79-39.26-7.94-39.26s-2.06-17.91-4.23-39.8c0,0-6.27-63.2,8-114.54,9.89-35.69,26.91-67.78,47.39-98,21-31,44.24-60.12,73.25-84.45,14-11.73,28.23-23.07,43.2-33.36a307.39,307.39,0,0,1,84.81-40.73l.57-.18c.62-.2,5.06-1.41,9.86-2.69s29.19-6.19,43.5-8.07l13.07-.88c54.23-3.64,108.23-5.56,161,12.37C570.38,76,601.44,94.86,630.47,117c29.73,22.7,57.48,47.61,80.12,78,10.91,14.64,21.42,29.5,30.83,45,12.55,20.7,15.43,28.2,15.43,28.2,7.89,20.54,14.4,38.68,14.46,40.32l.39,1.51,3.45,13.49a509,509,0,0,1,10,53l.74,13.08c3.09,54.26,4.46,108.28-14,160.84-12.27,35-31.41,65.82-53.88,94.62-23,29.5-48.2,57-78.78,79.32-14.75,10.77-29.72,21.12-45.35,30.38a307.47,307.47,0,0,1-87.36,34.92l-6.27,1.46c-7.1.59-13.12,1.23-13.36,1.42a22.24,22.24,0,0,1,3.51-2.39l2.32-1.34L488,779.12c-8,1.41-15.51,3.34-16.79,4.28l-.46,1.51c-6.17,20.47-4.43,41.32-2.83,62.13.35,4.54,4.54,4.88,8.06,5.28,4.23.49,4.92-2.66,5.38-5.77,1.14-7.72,2.05-15.48,3.35-23.18.86-5.08,3.12-9.18,10.64-8.71a69.27,69.27,0,0,0,23.31-2.89c8.15-2.34,13.27.23,15.82,7.52a37.46,37.46,0,0,0,2.63,6c2.4,4.28,3.7,10.62,10.26,9.84s13-2.57,15.64-9.94a57.59,57.59,0,0,0,2.73-12.52c.83-6.49,2-13,2.88-19.43a11.43,11.43,0,0,1,4.77-8.21c17.29-12.31,23.32-11.49,36.35,5.05.46.59.94,1.18,1.41,1.77,8.92,11.12,16,10.91,24.11-.81a14.61,14.61,0,0,0,2.41-11.47c-1.21-6.18-2.29-12.4-3.87-18.48-2-7.51-2.32-14.42,4.65-19.72l1-.77c1.12-.83,2.06-1.51,2.08-1.5a2.15,2.15,0,0,0,.52,0,4.94,4.94,0,0,0,1.3-.82A164.18,164.18,0,0,1,660,732.91l7.59,5.52c3.86,2.81,8.27,4.84,12.25,7.48,4.5,3,9.08,4.84,14,1.37,5.56-3.94,11.09-8,11.06-15.95,0-9.68-7.77-15.78-11.31-23.85-2.14-4.88-2.42-6.68,4.77-12.68a68.8,68.8,0,0,0,18-23.19c3.43-7.21,6.88-7.06,11.29-5.26,6,2.48,11.83,5.58,18.4,6.72,9.73,1.7,17.68-1,21-7.51,6.88-13.57,6.51-16.24-3.76-25.54a42.69,42.69,0,0,0-5.47-4.29c-5.12-3.3-6.35-7.09-3.32-12.51,5.79-10.32,11.23-20.85,16.72-31.33,7-13.33,4.4-13.51,19.62-9.3,6.94,1.92,11.91-.42,15.68-5.86,10-14.42,5.31-29.69-11-35.21-4.75-1.61-5.44-3.61-4-8.24a165.6,165.6,0,0,0,7.32-44.62c.09-5.2,2.05-6,6.91-5.87,12.51.34,24-2.82,29.27-15.62C839.14,457,837.51,442.93,824.13,441.24Z"/></g></g></svg>